<svg width="424" height="150" viewBox="0 0 424 150" fill="none" xmlns="http://www.w3.org/2000/svg"><path fill-rule="evenodd" clip-rule="evenodd" d="M53.472 34.742a6.879 6.879 0 00-9.73 0 6.879 6.879 0 000 9.73l10.543 10.541 1.1-1.1a1.364 1.364 0 011.929 1.929l-3.928 3.926a1.298 1.298 0 001.834 1.835l1.825-1.825.015-.015a1.365 1.365 0 01.063-.063l11.615-11.615.003-.003.003-.003 1.86-1.86a1.299 1.299 0 00-1.834-1.835l-1.864 1.863a1.364 1.364 0 01-1.928 0L53.472 34.742zm3.677 28.79l.9-.9 13.487 13.487 14.286 14.286a9.6 9.6 0 009.578 2.4l2.098 2.098a4.854 4.854 0 006.866 0 4.853 4.853 0 000-6.866l-2.369-2.37a9.593 9.593 0 00-2.587-8.848L71.634 49.046l.899-.899a4.026 4.026 0 000-5.691v-.001a4.026 4.026 0 00-5.692 0l-.899.9L55.4 32.814a9.606 9.606 0 00-13.586 0 9.606 9.606 0 000 13.586l10.542 10.541-.9.9a4.026 4.026 0 00.001 5.69v.001a4.026 4.026 0 005.692 0zm17.28 11.623L87.75 88.477a6.878 6.878 0 007.486 1.495 1.363 1.363 0 011.483.296l2.707 2.707a2.127 2.127 0 103.009-3.01l-2.923-2.923a1.364 1.364 0 01-.338-1.37 6.874 6.874 0 00-1.695-6.924L84.158 65.426l-9.73 9.729zm7.8-11.657L72.5 73.227 59.977 60.703l9.729-9.728 12.523 12.523zm8.31 14.569a1.364 1.364 0 011.928 0l2.288 2.288a1.364 1.364 0 01-1.929 1.928l-2.287-2.287a1.364 1.364 0 010-1.929zm12.079 22.983l.864-1.056a1.364 1.364 0 00-1.727 0l.863 1.056zm-1.955 4.119c.71-.958 1.421-1.73 1.955-2.263a20.18 20.18 0 011.955 2.263c1.445 1.951 2.783 4.537 2.783 7.366a4.738 4.738 0 01-9.476 0c0-2.829 1.338-5.415 2.783-7.366zm1.955-4.119a201.763 201.763 0 00-.864-1.055l-.003.002-.006.005-.019.016-.062.052-.217.19c-.183.164-.439.401-.744.705a22.926 22.926 0 00-2.231 2.581c-1.606 2.168-3.319 5.324-3.319 8.989a7.465 7.465 0 1014.93 0c0-3.665-1.713-6.821-3.318-8.989a23.005 23.005 0 00-2.232-2.581 19.417 19.417 0 00-.744-.705l-.217-.19-.062-.052-.019-.016-.006-.004-.002-.002-.001-.001-.864 1.055z" fill="#fff"/><path fill-rule="evenodd" clip-rule="evenodd" d="M142.419 103.044C131.426 129.442 105.38 148 75 148c-40.317 0-73-32.683-73-73S34.683 2 75 2c30.38 0 56.426 18.558 67.419 44.956.345-.856.706-1.703 1.081-2.543C131.795 18.24 105.527 0 75 0 33.579 0 0 33.579 0 75s33.579 75 75 75c30.527 0 56.795-18.238 68.5-44.413a76.032 76.032 0 01-1.081-2.543zm2.647-7.49a70.82 70.82 0 001.081 3.239A74.92 74.92 0 00150 75a74.92 74.92 0 00-3.853-23.793 70.82 70.82 0 00-1.081 3.239A73.006 73.006 0 01148 75a73.006 73.006 0 01-2.934 20.555z" fill="#fff"/><circle cx="349" cy="75" r="74" stroke="#fff" stroke-width="2"/><path fill-rule="evenodd" clip-rule="evenodd" d="M279.419 103.044C268.426 129.442 242.38 148 212 148c-40.317 0-73-32.683-73-73s32.683-73 73-73c30.38 0 56.426 18.558 67.419 44.956.345-.856.706-1.703 1.081-2.543C268.795 18.24 242.527 0 212 0c-41.421 0-75 33.579-75 75s33.579 75 75 75c30.527 0 56.795-18.238 68.5-44.413a76.032 76.032 0 01-1.081-2.543zm4.147-13.575a66.473 66.473 0 001.081 4.241A75.13 75.13 0 00287 75c0-6.46-.817-12.73-2.353-18.71a66.473 66.473 0 00-1.081 4.241A73.292 73.292 0 01285 75c0 4.954-.493 9.792-1.434 14.469z" fill="#fff"/><path fill-rule="evenodd" clip-rule="evenodd" d="M201.48 33.5a4.18 4.18 0 00-1.129 8.205v12.901c0 2.935-.773 5.82-2.241 8.36l-2.799 4.85-.01.016-17.08 29.584c-4.896 8.482 1.224 19.084 11.018 19.084h44.96c9.795.001 15.914-10.602 11.018-19.084l-19.89-34.451a16.72 16.72 0 01-2.24-8.36v-12.9a4.18 4.18 0 00-1.129-8.205H201.48zm-4.171 36.855l-16.49 28.56c-3.742 6.483.936 14.585 8.42 14.585h44.96c7.484.001 12.162-8.1 8.42-14.584L225.538 69.33c-.784-.278-1.48-.397-2.113-.346-2.794.225-4.807 1.217-6.995 2.296-.532.262-1.073.53-1.639.792-2.91 1.35-6.116 2.336-10.8.901-1.332-.408-2.642-.968-3.848-1.484l-.279-.119c-.907-.387-1.75-.74-2.555-1.016zm26.291-4.38l-.871-1.51a19.715 19.715 0 01-2.642-9.86V41.859h-2.599a1.5 1.5 0 110-3h4.47a1.18 1.18 0 100-2.359H201.48a1.18 1.18 0 100 2.36h.371a1.5 1.5 0 011.5 1.5v14.246c0 3.46-.911 6.863-2.643 9.86l-1.875 3.248c.753.28 1.495.593 2.209.898l.247.106c1.24.53 2.409 1.029 3.58 1.388 3.733 1.143 6.146.412 8.66-.754.452-.21.919-.442 1.404-.683 2.223-1.104 4.832-2.4 8.252-2.675h.001c.139-.01.277-.017.414-.02zm10.074 24.386a1.5 1.5 0 10-2.598 1.5l5.942 10.29a1.5 1.5 0 002.598-1.5l-5.942-10.29zm-44.518 4.051a1.5 1.5 0 01.549 2.05l-3.284 5.689c-.844 1.463-.303 2.732-.001 3.254.304.524 1.133 1.628 2.819 1.628a1.5 1.5 0 110 3c-3.267 0-4.893-2.222-5.416-3.126-.524-.906-1.634-3.425 0-6.256l3.284-5.69a1.5 1.5 0 012.049-.549zm29.611-1.957a2.501 2.501 0 115.002 0 2.501 2.501 0 01-5.002 0zm2.501-5.501a5.501 5.501 0 100 11.002 5.501 5.501 0 000-11.002zm-18.549 9.776a4.457 4.457 0 100 8.913 4.457 4.457 0 000-8.913zm-7.457 4.457a7.457 7.457 0 1114.914 0 7.457 7.457 0 11-14.914 0zm12.92-20.853a1.39 1.39 0 11-.001 2.782 1.392 1.392 0 110-2.782h.001zm4.39 1.391a4.39 4.39 0 00-4.392-4.391h-.001a4.391 4.391 0 104.393 4.391z" fill="#fff"/><path d="M336.36 50.672a1.396 1.396 0 01.228-1.443l11.438-13.736c.542-.657 1.656-.657 2.199 0l11.438 13.736c.342.4.428.957.228 1.443-.2.485-.642.828-1.171.885l-4.041.428V72.32c0 .785-.642 1.428-1.428 1.428a1.432 1.432 0 01-1.428-1.428V50.714c0-.728.543-1.342 1.271-1.413l2.67-.286-8.639-10.38L340.486 49l2.671.285c.728.072 1.27.686 1.27 1.414v21.62c0 .784-.642 1.427-1.427 1.427a1.432 1.432 0 01-1.428-1.428V51.985l-4.041-.428a1.431 1.431 0 01-1.171-.885zm-14.065 60.287c0 2.27-2.371 4.041-5.398 4.041-3.027 0-5.398-1.771-5.398-4.041 0-2.27 2.371-4.041 5.398-4.041 3.027 0 5.398 1.785 5.398 4.041zm-2.428 0c0-.757-1.271-1.614-2.97-1.614-1.699 0-2.97.857-2.97 1.614 0 .757 1.271 1.614 2.97 1.614 1.699 0 2.97-.843 2.97-1.614zm19.663 0c0 2.27-2.371 4.041-5.398 4.041-3.027 0-5.398-1.771-5.398-4.041 0-2.27 2.371-4.041 5.398-4.041 3.027.014 5.398 1.785 5.398 4.041zm-2.428 0c0-.757-1.271-1.614-2.97-1.614-1.699 0-2.97.857-2.97 1.614 0 .757 1.271 1.614 2.97 1.614 1.699 0 2.97-.843 2.97-1.614zm-9.624-11.78c0 2.27-2.37 4.041-5.398 4.041-3.027 0-5.397-1.771-5.397-4.041 0-2.27 2.37-4.042 5.397-4.042 3.028.015 5.398 1.785 5.398 4.041zm-2.428 0c0-.757-1.27-1.614-2.97-1.614-1.699 0-2.97.857-2.97 1.614 0 .756 1.271 1.613 2.97 1.613 1.7 0 2.97-.842 2.97-1.614zm62.13 11.78c0 2.27-2.371 4.041-5.398 4.041-3.027 0-5.397-1.771-5.397-4.041 0-2.27 2.37-4.041 5.397-4.041 3.027.014 5.398 1.785 5.398 4.041zm-2.428 0c0-.757-1.271-1.614-2.97-1.614-1.699 0-2.97.857-2.97 1.614 0 .757 1.271 1.614 2.97 1.614 1.699 0 2.97-.843 2.97-1.614zm-14.807 0c0 2.27-2.371 4.041-5.398 4.041-3.027 0-5.398-1.771-5.398-4.041 0-2.27 2.371-4.041 5.398-4.041 3.027.014 5.398 1.785 5.398 4.041zm-2.428 0c0-.757-1.271-1.614-2.97-1.614-1.699 0-2.97.857-2.97 1.614 0 .757 1.271 1.614 2.97 1.614 1.699 0 2.97-.843 2.97-1.614zm9.068-7.739c-3.028 0-5.398-1.771-5.398-4.041 0-2.27 2.37-4.042 5.398-4.042 3.027 0 5.397 1.771 5.397 4.041 0 2.271-2.37 4.042-5.397 4.042zm0-2.428c1.699 0 2.97-.857 2.97-1.614 0-.756-1.271-1.613-2.97-1.613-1.7 0-2.971.857-2.971 1.614 0 .756 1.271 1.613 2.971 1.613zm-42.639-9.224c-.299-.729-.899-1.443-1.556-1.97h-21.105a1.213 1.213 0 100 2.427h22.833c-.057-.172-.129-.329-.172-.457zm53.448-1.97h-21.105c-.657.527-1.256 1.256-1.556 1.984-.057.114-.115.271-.186.443h22.847a1.213 1.213 0 100-2.428zm-24.775 1.099c.843-2.014 3.185-4.213 5.512-4.227l19.263-.029a1.28 1.28 0 001.285-1.285 1.28 1.28 0 00-1.285-1.285l-19.277.029c-3.556.042-6.711 3.027-7.868 5.826-.314.756-1.014 2.598-1.899 4.912-1.499 3.955-3.556 9.367-5.112 13.108-.9 2.142-2.185 2.627-3.841 2.713-1.785-.086-3.07-.557-3.97-2.713-1.571-3.755-3.627-9.196-5.141-13.165-.871-2.285-1.556-4.113-1.87-4.87-1.157-2.799-4.312-5.783-7.882-5.826l-19.249-.014A1.28 1.28 0 00310 85.156a1.28 1.28 0 001.285 1.285l19.249.029c2.327.028 4.683 2.213 5.512 4.227.314.742.985 2.527 1.842 4.783 1.513 3.984 3.584 9.453 5.169 13.237 1.513 3.627 4.112 4.198 6.34 4.284 2.099-.1 4.712-.671 6.211-4.284 1.571-3.77 3.641-9.21 5.141-13.18.885-2.27 1.57-4.084 1.87-4.84zm-26.131-5.755h.714c.4 0 .714-.314.714-.714 0-.4-.314-.714-.714-.714h-.714c-.4 0-.714.314-.714.714 0 .4.314.714.714.714zm16.421-1.428a.708.708 0 00-.714.714c0 .4.315.714.714.714h1.428c.4 0 .714-.314.714-.714 0-.4-.314-.714-.714-.714h-1.428zm4.284 0c-.4 0-.714.314-.714.714 0 .4.314.714.714.714h1.428c.4 0 .714-.314.714-.714 0-.4-.314-.714-.714-.714h-1.428zm-15.707 0h-1.428c-.4 0-.714.314-.714.714 0 .4.314.714.714.714h1.428c.4 0 .714-.314.714-.714 0-.4-.329-.714-.714-.714zm2.856 0c-.4 0-.714.314-.714.714 0 .4.314.714.714.714h1.428c.4 0 .714-.314.714-.714 0-.4-.314-.714-.714-.714h-1.428zm4.284 0c-.4 0-.714.314-.714.714 0 .4.314.714.714.714h1.428a.708.708 0 00.714-.714c0-.4-.315-.714-.714-.714h-1.428zm12.137.714c0 .4.314.714.714.714h.714c.4 0 .714-.314.714-.714 0-.4-.314-.714-.714-.714h-.714c-.4 0-.714.329-.714.714z" fill="#fff"/></svg>