<svg width="54" height="57" viewBox="0 0 54 57" fill="none" xmlns="http://www.w3.org/2000/svg"><circle cx="27.174" cy="30.488" r="25.849" fill="#46AAAE"/><path d="M27.139 11.793a.662.662 0 00.662-.662V8.206a.662.662 0 00-1.324 0v2.925c0 .365.296.662.662.662zm-9.253 2.479a.662.662 0 00.242-.904l-1.463-2.533a.662.662 0 10-1.146.661l1.463 2.534a.66.66 0 00.904.242zm-7.678 7.016a.662.662 0 00.661-1.147L8.336 18.68a.662.662 0 00-.661 1.146l2.533 1.463zM4.385 30.3c0 .365.296.661.661.661h2.925a.662.662 0 000-1.323H5.046a.662.662 0 00-.661.661zm3.951 11.62l2.533-1.463a.662.662 0 00-.662-1.147l-2.533 1.463a.662.662 0 00.662 1.146zm7.426 8.085a.661.661 0 00.903-.242l1.463-2.533a.662.662 0 00-1.146-.662l-1.463 2.533a.662.662 0 00.243.904zm10.715-.538v2.926a.662.662 0 101.324 0v-2.926a.662.662 0 00-1.324 0zm10.819-2.897a.662.662 0 00-1.146.66l1.462 2.534a.662.662 0 001.147-.662l-1.463-2.533zm6.774-7.259a.662.662 0 00-.662 1.147l2.533 1.462a.661.661 0 10.661-1.146l-2.532-1.463zm5.824-9.011a.662.662 0 00-.662-.662h-2.925a.662.662 0 100 1.323h2.925a.662.662 0 00.662-.662zm-3.952-11.62l-2.533 1.462a.662.662 0 00.662 1.147l2.533-1.463a.662.662 0 00-.662-1.146zm-8.646-4.65l1.463-2.533a.662.662 0 00-1.146-.662l-1.463 2.533a.662.662 0 001.146.662zm-1.373 17.63h1.542v-5.155c0-.343.055-.605.166-.787.11-.181.312-.272.605-.272.241 0 .428.08.559.242.131.16.196.383.196.665v5.307h1.543v-5.882c0-.342-.045-.632-.136-.87a1.633 1.633 0 00-.363-.58 1.328 1.328 0 00-.514-.326 1.774 1.774 0 00-.574-.098c-.353 0-.643.078-.87.234-.227.156-.42.355-.582.597h-.03v-3.84h-1.542V31.66zm-12.115-7.936v-2.671h-7.964v4.662H18.2v-2.148h2.934l-4.689 16.138h2.83l4.532-15.98zm4.217-2.501c-.49.218-.908.51-1.257.878a4.05 4.05 0 00-.864 1.283 3.948 3.948 0 00-.315 1.572v1.466h2.673v-1.519c0-.436.117-.768.353-.995.236-.227.554-.34.956-.34.332 0 .585.064.76.195.174.132.305.293.392.485.088.192.136.415.144.668.009.253.014.494.014.72 0 .507-.018.93-.053 1.271-.035.34-.174.738-.42 1.192l-4.82 9.09v2.516h7.965v-2.673h-4.82l3.93-7.57c.21-.402.375-.743.498-1.022.121-.28.21-.559.262-.839a6.94 6.94 0 00.105-.877c.017-.306.026-.685.026-1.14 0-.628-.074-1.222-.222-1.781a4.52 4.52 0 00-.695-1.494 3.584 3.584 0 00-1.244-1.034c-.498-.253-1.096-.38-1.794-.38a3.82 3.82 0 00-1.574.328z" fill="#fff"/><path d="M53.371 29.64a26.075 26.075 0 00-2.275-9.797A26.126 26.126 0 0036.907 6.289a25.594 25.594 0 00-4.23-1.261l-.024.12c1.427.328 2.824.776 4.172 1.344a25.675 25.675 0 0113.67 13.614 25.316 25.316 0 012 9.556 25.315 25.315 0 01-1.722 9.568 25.194 25.194 0 01-5.193 8.17 25.187 25.187 0 01-7.85 5.596 24.955 24.955 0 01-18.781.741 24.754 24.754 0 01-8.152-4.9 24.752 24.752 0 01-5.689-7.574 24.386 24.386 0 01-2.391-9.117 24.513 24.513 0 011.202-9.31 24.25 24.25 0 014.61-8.128 24.44 24.44 0 017.301-5.77 23.991 23.991 0 017.282-2.382v2.675l3.544-2.307L30.2 4.616l-3.544-2.309L23.112 0v3.045a27.352 27.352 0 00-8.819 2.995 27.622 27.622 0 00-8.11 6.7 27.206 27.206 0 00-4.97 9.226A27.262 27.262 0 00.1 32.34a26.903 26.903 0 002.856 9.996 27.048 27.048 0 006.395 8.14 26.85 26.85 0 008.95 5.119 26.844 26.844 0 0010.179 1.356 26.585 26.585 0 009.9-2.569 26.606 26.606 0 008.163-6.09 26.413 26.413 0 005.255-8.676 26.301 26.301 0 001.573-9.977z" fill="#fff"/></svg>