<svg width="14" height="52" viewBox="0 0 14 52" fill="none" xmlns="http://www.w3.org/2000/svg"><mask id="mask0_309_129" style="mask-type:alpha" maskUnits="userSpaceOnUse" x="0" y="0" width="14" height="52"><path fill="#C4C4C4" d="M0 0h14v52H0z"/></mask><g mask="url(#mask0_309_129)"><path d="M12.714 40.558l-5.172-8.273a.667.667 0 00-.557-.312.648.648 0 00-.557.312l-5.173 8.273a7.333 7.333 0 00-1.374 4.3c0 4.012 3.186 7.275 7.104 7.275 3.917 0 7.104-3.263 7.104-7.274a7.332 7.332 0 00-1.375-4.301zm-5.73 10.221c-3.187 0-5.78-2.656-5.78-5.92a5.966 5.966 0 011.153-3.552l4.628-7.4 4.627 7.4a5.967 5.967 0 011.154 3.552c0 3.264-2.593 5.92-5.781 5.92z" fill="#18A2CF"/></g></svg>