<svg width="10" height="34" viewBox="0 0 10 34" fill="none" xmlns="http://www.w3.org/2000/svg"><mask id="mask0_306_120" style="mask-type:alpha" maskUnits="userSpaceOnUse" x="0" y="0" width="10" height="34"><path fill="#C4C4C4" d="M0 0h10v34H0z"/></mask><g mask="url(#mask0_306_120)"><path d="M8.771 25.999l-3.415-5.466a.44.44 0 00-.368-.206.428.428 0 00-.368.206l-3.416 5.466a4.847 4.847 0 00-.907 2.841c0 2.65 2.104 4.807 4.691 4.807 2.587 0 4.691-2.156 4.691-4.807A4.846 4.846 0 008.771 26zm-3.783 6.753c-2.105 0-3.818-1.755-3.818-3.912a3.943 3.943 0 01.762-2.347l3.056-4.89 3.056 4.89.016.025c.487.672.748 1.486.746 2.322 0 2.157-1.713 3.912-3.818 3.912z" fill="#18A2CF"/></g></svg>