<svg viewBox="0 0 100 100" fill="none" xmlns="http://www.w3.org/2000/svg"><circle cx="50" cy="50" r="50" fill="transparent"/><path d="M48.136 74.613a1.036 1.036 0 01-.249-2.042 11.192 11.192 0 005.222-2.95L76.55 46.178c4.366-4.366 4.366-11.467 0-15.833a11.123 11.123 0 00-7.914-3.28c-2.989 0-5.8 1.167-7.914 3.28L37.28 53.787a11.182 11.182 0 00-2.085 2.879 1.035 1.035 0 11-1.85-.932 13.315 13.315 0 012.471-3.41l23.437-23.436A13.185 13.185 0 0168.636 25c3.543 0 6.876 1.382 9.382 3.888 5.174 5.174 5.174 13.585 0 18.76L54.577 71.083a13.27 13.27 0 01-6.193 3.5 1.05 1.05 0 01-.248.029z" fill="#fff"/><path d="M72.562 43.224a1.03 1.03 0 01-.732-1.764 4.481 4.481 0 001.32-3.19 4.473 4.473 0 00-1.32-3.19 1.03 1.03 0 010-1.463 1.03 1.03 0 011.464 0 6.535 6.535 0 011.927 4.658c0 1.76-.684 3.414-1.927 4.657a1.076 1.076 0 01-.732.292zm-6.996 16.445c-.263 0-.53-.1-.732-.301l-17.3-17.297a1.03 1.03 0 010-1.463 1.03 1.03 0 011.463 0l17.3 17.292a1.03 1.03 0 010 1.463 1.029 1.029 0 01-.73.306zM36.544 75c-10.142 0-18.458-8.249-18.54-18.391L18 55.58a1.034 1.034 0 011.038-1.042c10.228 0 18.544 8.316 18.544 18.54v.89c0 .568-.464 1.032-1.038 1.032zM20.08 56.642c.091 8.636 6.915 15.723 15.431 16.259-.095-8.656-6.89-15.728-15.43-16.259z" fill="#fff"/><path d="M36.544 75c-.263 0-.53-.1-.731-.301L28.31 67.19a1.03 1.03 0 010-1.463 1.03 1.03 0 011.463 0l7.503 7.503a1.03 1.03 0 010 1.463 1.01 1.01 0 01-.732.306z" fill="#fff"/><path d="M36.544 75a1.037 1.037 0 01-1.037-1.038v-.89c0-10.218 8.315-18.539 18.54-18.539a1.04 1.04 0 011.042 1.043l-.01 1.028C55.002 66.75 46.687 75 36.544 75zm16.47-18.358c-8.546.536-15.337 7.608-15.432 16.259 8.517-.54 15.336-7.623 15.431-16.259z" fill="#fff"/><path d="M36.544 75a1.03 1.03 0 01-.732-1.764l7.503-7.503a1.03 1.03 0 011.464 0 1.03 1.03 0 010 1.463l-7.503 7.503c-.201.2-.464.301-.732.301z" fill="#fff"/></svg>