<svg viewBox="0 0 100 100" fill="none" xmlns="http://www.w3.org/2000/svg"><circle cx="50" cy="50" r="50" fill="transparent"/><path d="M82.986 50.855a5.078 5.078 0 00-2.939-2.58 5.072 5.072 0 00-3.9.254 5.07 5.07 0 00-2.218 2.124l-12.085-2.931a12.115 12.115 0 00-1.249-5.64 12.174 12.174 0 00-4.09-4.708l4.12-7.474a5.142 5.142 0 001.769.316c.756 0 1.524-.167 2.248-.525a5.112 5.112 0 002.324-6.837 5.078 5.078 0 00-2.939-2.579 5.071 5.071 0 00-3.901.253 5.078 5.078 0 00-2.579 2.939 5.072 5.072 0 001.203 5.23l-4.193 7.606a12.136 12.136 0 00-10.318.221c-1.22.6-2.294 1.383-3.21 2.294l-10.073-7.43a7.284 7.284 0 00-.051-6.368 7.272 7.272 0 00-4.214-3.697 7.277 7.277 0 00-5.596.364 7.266 7.266 0 00-3.701 4.215 7.284 7.284 0 00.364 5.598 7.276 7.276 0 004.215 3.7 7.294 7.294 0 005.595-.365 7.273 7.273 0 002.146-1.602l9.89 7.29c-2.435 3.528-2.948 8.239-.92 12.349.184.377.388.739.607 1.089l-9.142 7.19a4.446 4.446 0 00-4.72-.51 4.423 4.423 0 00-2.243 2.554 4.406 4.406 0 00.22 3.39 4.447 4.447 0 003.992 2.48c.659 0 1.327-.146 1.954-.457a4.423 4.423 0 002.244-2.555 4.411 4.411 0 00-.107-3.13l9.146-7.193c2.33 2.54 5.63 3.96 9.022 3.96 1.77 0 3.566-.389 5.265-1.203l8.058 11.757a5.997 5.997 0 00-1.002 1.827 5.948 5.948 0 00.3 4.58 5.953 5.953 0 003.448 3.026 5.983 5.983 0 001.935.323c.906 0 1.808-.209 2.644-.62a5.953 5.953 0 003.026-3.449 5.949 5.949 0 00-.299-4.58 5.953 5.953 0 00-3.448-3.025 5.96 5.96 0 00-4.906.474l-7.845-11.453a12.223 12.223 0 004.759-7.399l11.718 2.844c-.056.863.104 1.75.512 2.579a5.113 5.113 0 006.838 2.326 5.078 5.078 0 002.579-2.939 5.076 5.076 0 00-.253-3.903zM59.65 24.18a2.864 2.864 0 011.458-1.66 2.865 2.865 0 012.205-.143c.729.248 1.32.765 1.66 1.458a2.89 2.89 0 01-1.315 3.865 2.89 2.89 0 01-3.865-1.315 2.87 2.87 0 01-.143-2.205zm-33.061 8.66a5.07 5.07 0 01-3.902.253 5.077 5.077 0 01-2.938-2.579 5.07 5.07 0 01-.253-3.9 5.07 5.07 0 012.579-2.94 5.071 5.071 0 013.901-.252 5.078 5.078 0 012.939 2.579 5.07 5.07 0 01.252 3.9 5.078 5.078 0 01-2.579 2.94zm1.784 33.774a2.221 2.221 0 11-.985-4.213c.82 0 1.61.455 1.996 1.24a2.223 2.223 0 01-1.011 2.973zm39.278 3.61c.409 0 .82.067 1.218.2a3.75 3.75 0 012.17 1.906 3.75 3.75 0 01.188 2.883 3.75 3.75 0 01-1.906 2.17 3.747 3.747 0 01-2.883.188 3.75 3.75 0 01-2.17-1.906 3.747 3.747 0 01-.187-2.882 3.75 3.75 0 011.905-2.171 3.743 3.743 0 011.665-.389zM54.054 56.44c-4.944 2.436-10.945.394-13.378-4.547-2.435-4.942-.394-10.946 4.548-13.379a9.945 9.945 0 019.248.22l.012.006a9.912 9.912 0 014.12 4.322c2.434 4.942.392 10.945-4.55 13.378zm27.082-2.401a2.889 2.889 0 01-5.323.345 2.89 2.89 0 012.589-4.164c.313 0 .627.051.93.156a2.86 2.86 0 011.66 1.458 2.87 2.87 0 01.144 2.205z" fill="#fff"/><path d="M45.812 39.708a1.11 1.11 0 10.982 1.993 6.445 6.445 0 018.621 2.931 1.112 1.112 0 001.486.506c.549-.27.775-.936.505-1.488-2.11-4.282-7.311-6.052-11.594-3.942z" fill="#fff"/></svg>