<svg viewBox="0 0 100 100" fill="none" xmlns="http://www.w3.org/2000/svg"><circle cx="50" cy="50" r="50" fill="transparent"/><path d="M73.166 62.65h-.577c-2.55 0-4.63 1.647-4.63 3.667 0 2.02 2.08 3.667 4.63 3.667h.577c2.55 0 4.63-1.647 4.63-3.667 0-2.02-2.069-3.668-4.63-3.668zm0 5.29h-.577c-1.527 0-2.585-.854-2.585-1.623 0-.77 1.058-1.623 2.585-1.623h.577c1.527 0 2.585.853 2.585 1.623s-1.058 1.623-2.585 1.623zm-11.002-1.623c0-2.02-2.08-3.668-4.63-3.668h-.576c-2.55 0-4.63 1.648-4.63 3.668 0 2.02 2.08 3.667 4.63 3.667h.577c2.561 0 4.63-1.647 4.63-3.667zm-4.63 1.623h-.576c-1.527 0-2.585-.854-2.585-1.623 0-.77 1.058-1.623 2.585-1.623h.577c1.527 0 2.585.853 2.585 1.623s-1.058 1.623-2.585 1.623zm-11.001-1.623c0-2.02-2.08-3.668-4.63-3.668h-.576c-2.55 0-4.63 1.648-4.63 3.668 0 2.02 2.08 3.667 4.63 3.667h.577c2.56 0 4.629-1.647 4.629-3.667zm-4.63 1.623h-.576c-1.527 0-2.586-.854-2.586-1.623 0-.77 1.059-1.623 2.586-1.623h.577c1.527 0 2.585.853 2.585 1.623s-1.058 1.623-2.585 1.623zm-11.001-1.623c0-2.02-2.08-3.668-4.63-3.668h-.565c-2.549 0-4.629 1.648-4.629 3.668 0 2.02 2.08 3.667 4.63 3.667h.577c2.549 0 4.617-1.647 4.617-3.667zm-4.63 1.623h-.565c-1.527 0-2.585-.854-2.585-1.623 0-.77 1.058-1.623 2.585-1.623h.578c1.527 0 2.585.853 2.585 1.623s-1.07 1.623-2.598 1.623zm38.309 4.725h-.577c-2.55 0-4.63 1.648-4.63 3.668 0 2.02 2.08 3.667 4.63 3.667h.577c2.549 0 4.63-1.647 4.63-3.667 0-2.02-2.081-3.668-4.63-3.668zm0 5.29h-.577c-1.527 0-2.585-.853-2.585-1.622 0-.77 1.058-1.624 2.585-1.624h.577c1.527 0 2.585.854 2.585 1.624 0 .77-1.07 1.623-2.585 1.623zm-15.631-5.29h-.577c-2.55 0-4.63 1.648-4.63 3.668 0 2.02 2.08 3.667 4.63 3.667h.577c2.549 0 4.629-1.647 4.629-3.667 0-2.02-2.08-3.668-4.63-3.668zm0 5.29h-.577c-1.527 0-2.586-.853-2.586-1.622 0-.77 1.059-1.624 2.586-1.624h.577c1.527 0 2.585.854 2.585 1.624 0 .77-1.07 1.623-2.585 1.623zm-15.632-5.29h-.577c-2.549 0-4.629 1.648-4.629 3.668 0 2.02 2.08 3.667 4.63 3.667h.577c2.549 0 4.629-1.647 4.629-3.667 0-2.02-2.08-3.668-4.63-3.668zm0 5.29h-.577c-1.527 0-2.585-.853-2.585-1.622 0-.77 1.058-1.624 2.585-1.624h.578c1.527 0 2.585.854 2.585 1.624 0 .77-1.07 1.623-2.586 1.623zm48.337-20.283c0 .66-.541 1.202-1.203 1.202h-17.94v-2.405h17.94c.662 0 1.203.541 1.203 1.203zm-42.998 1.202H19.202A1.206 1.206 0 0118 57.67c0-.66.541-1.202 1.202-1.202h19.455v2.405zm28.257-7.972H80.44c.662 0 1.203.541 1.203 1.202 0 .662-.541 1.203-1.203 1.203H66.915v-2.405zM18 52.104c0-.661.541-1.202 1.202-1.202h15.451v2.405h-15.45A1.206 1.206 0 0118 52.104zm24.77-9.042h.023c.049 0 .097-.024.145-.024.06.012.108.036.156.036h.024c2.417-.036 4.63-.998 6.072-2.62 1.359-1.54 1.96-3.572 1.708-5.917-.686-4.966-6.481-13.635-6.734-14.008a1.195 1.195 0 00-1.226-.505c-.385 0-.77.157-1.01.505-.253.361-6.096 8.982-6.842 13.984-.276 2.309.3 4.34 1.647 5.892 1.42 1.635 3.62 2.61 6.036 2.657zm-5.291-8.224c.505-3.367 3.92-9.042 5.567-11.603 1.623 2.585 5.014 8.272 5.47 11.603.17 1.635-.203 2.994-1.117 4.028-.986 1.118-2.562 1.78-4.305 1.804-.048 0-.084.024-.12.024-.048-.012-.084-.024-.132-.024-1.744-.049-3.307-.71-4.281-1.828-.914-1.046-1.275-2.405-1.082-4.004zm2.91 4.232c-1.588-1.419-2.129-3.8-1.335-5.94.204-.565.83-.841 1.395-.637.565.205.841.83.637 1.395-.565 1.515-.036 2.886.745 3.571.445.397.493 1.082.097 1.527a1.07 1.07 0 01-.806.36c-.276 0-.529-.095-.733-.276zm15.294 15.343a1.088 1.088 0 011.31.794 1.088 1.088 0 01-.793 1.31c-1.094.265-2.2.385-3.282.385a14.196 14.196 0 01-11.784-6.313l-.733 1.84a1.093 1.093 0 01-1.407.613 1.076 1.076 0 01-.601-1.407l1.527-3.823a1.074 1.074 0 011.358-.613.985.985 0 01.325.012l3.715.817c.59.133.95.71.83 1.287a1.08 1.08 0 01-1.286.83l-1.636-.361c2.754 3.847 7.684 5.771 12.457 4.629zm-1.695-24.71c.096-.588.65-.985 1.25-.89 5.904.987 10.473 5.604 11.555 11.352l1.395-1.407a1.081 1.081 0 011.527-.012c.421.42.433 1.106.012 1.527l-2.898 2.922a1.085 1.085 0 01-.77.324 1.04 1.04 0 01-.684-.264 1.157 1.157 0 01-.325-.157l-3.102-2.2a1.069 1.069 0 01-.253-1.503 1.069 1.069 0 011.503-.253l1.37.974c-1.07-4.653-4.845-8.344-9.69-9.15-.602-.12-.998-.673-.89-1.262z" fill="#fff"/></svg>