<svg width="705" height="128" viewBox="0 0 705 128" fill="none" xmlns="http://www.w3.org/2000/svg"><path d="M575.339 23.123c17.763 0 18.662 17.763 18.662 17.763h24.884S616.225 4.46 575.339 4.46c-30.244 0-46.207 21.871-46.207 48.868 0 26.997 16.002 48.868 46.207 48.868 40.846 0 43.546-36.426 43.546-36.426h-24.884s-.899 17.763-18.662 17.763c-15.807 0-21.324-13.498-21.324-30.205s5.517-30.205 21.324-30.205zm83.493 63.11c-7.982 0-12.951-4.46-12.951-11.543 0-8.177 6.769-12.246 14.751-14.202 7.121-1.76 15.454-3.717 19.562-7.473-.039 13.655-4.46 33.218-21.362 33.218zm6.221-81.773c-21.324 0-40.338 7.473-41.786 31.105h24.884c.352-9.938 6.221-14.202 16.902-14.202 9.781 0 15.102 4.264 15.102 11.542 0 10.29-14.554 11.542-30.048 15.454-15.259 3.913-29.501 11.738-29.501 28.953 0 17.059 12.442 24.884 29.305 24.884 23.632 0 29.305-20.424 29.305-20.424h.9v17.763H705v-63.07c.039-23.984-17.724-32.005-39.947-32.005zM64.792 1.839v39.634H10.76V1.839H0v97.696h10.76V51.802h54.032v47.733h10.72V1.839h-10.72zm78.172 27.896l-22.34 57.945-23.32-57.945H86.272l29.462 69.683-12.286 28.053h10.877l39.673-97.736h-11.033zm38.108 62.835c-11.033 0-17.019-4.89-17.019-12.715 0-8.099 6.69-13.263 21.48-13.263 5.986 0 13.811 1.252 20.658 3.208.274 11.738-9.508 22.77-25.119 22.77zm5.869-64.634c-12.716 0-22.497 5.438-28.757 14.241l7.277 5.713c4.343-6.73 11.581-11.034 21.519-11.034 12.129 0 19.407 5.87 19.407 18.155v5.712c-7.826-1.956-15.651-2.817-21.911-2.817-17.997 0-30.439 7.551-30.439 22.34 0 12.442 8.373 21.206 25.001 21.206 12.716 0 23.045-5.868 27.349-14.241v12.285h9.781V55.011c-.078-14.399-7.59-27.075-29.227-27.075zM242.069 0h-9.899v99.535h9.899V0zm66.434 70.347c-1.134 10.056-7.825 21.793-22.34 21.793-9.899 0-18.702-4.343-18.702-21.793V29.735h-9.781v44.251c0 13.537 5.321 26.958 25.979 26.958 12.285 0 20.658-5.713 24.844-14.086v12.834h9.782V29.735h-9.782v40.612zm63.54-41.59c-14.79-.274-23.867 7.825-27.623 16.355V29.735h-9.898v69.8h9.898V62.679c.822-7.943 5.321-26.097 27.623-24.023v-9.899zm36.152 62.953c-14.946 0-26.801-12.168-26.801-27.075 0-14.789 11.855-26.957 26.801-26.957 14.946 0 26.801 12.168 26.801 26.957 0 14.946-11.855 27.075-26.801 27.075zm0-63.774c-20.384 0-36.856 16.472-36.856 36.856 0 20.228 16.472 36.582 36.856 36.582s36.7-16.315 36.7-36.582c0-20.384-16.316-36.856-36.7-36.856zm84.041.821c-12.285 0-20.658 5.87-24.844 14.242V29.735h-9.782v69.8h9.782V59.353c1.095-10.211 7.825-21.636 22.34-21.636 9.899 0 18.702 4.343 18.702 21.793v40.064h9.782v-43.82c0-13.46-5.322-26.997-25.98-26.997z" fill="#fff"/></svg>