<svg width="320" height="140" viewBox="0 0 320 140" fill="none" xmlns="http://www.w3.org/2000/svg"><mask id="mask0_178_156" style="mask-type:alpha" maskUnits="userSpaceOnUse" x="0" y="0" width="320" height="140"><path transform="matrix(-1 0 0 1 320 0)" fill="#C4C4C4" d="M0 0h320v140H0z"/></mask><g mask="url(#mask0_178_156)"><path d="M-224.641 117.15l14.187-21.683c13.598-21.594 41.383-64.87 76.351-60.455 35.556 4.326 77.706 56.434 114.829 75.157 37.122 18.723 69.217 4.062 99.875-20.138 30.658-24.2 60.468-58.028 93.999-63.15 33.531-5.124 71.372 18.369 104.903 13.246 33.531-5.123 62.753-38.861 93.999-63.15 30.658-24.2 62.753-38.862 78.506-46.148l16.342-7.375" stroke="#fff" stroke-width="4"/></g></svg>